<?xml version="1.0" encoding="UTF-8" standalone="no"?>
<svg
   viewBox="0 0 400 400"
   version="1.1"
   id="svg19"
   sodipodi:docname="thumbs-up-01.svg"
   width="400"
   height="400"
   inkscape:version="1.1.2 (b8e25be833, 2022-02-05)"
   xmlns:inkscape="http://www.inkscape.org/namespaces/inkscape"
   xmlns:sodipodi="http://sodipodi.sourceforge.net/DTD/sodipodi-0.dtd"
   xmlns="http://www.w3.org/2000/svg"
   xmlns:svg="http://www.w3.org/2000/svg">
  <defs
     id="defs23" />
  <sodipodi:namedview
     id="namedview21"
     pagecolor="#ffffff"
     bordercolor="#999999"
     borderopacity="1"
     inkscape:pageshadow="0"
     inkscape:pageopacity="0"
     inkscape:pagecheckerboard="0"
     showgrid="true"
     inkscape:zoom="1.140625"
     inkscape:cx="135.45205"
     inkscape:cy="156.05479"
     inkscape:window-width="2560"
     inkscape:window-height="1377"
     inkscape:window-x="-8"
     inkscape:window-y="-8"
     inkscape:window-maximized="1"
     inkscape:current-layer="svg19"
     inkscape:snap-nodes="true"
     inkscape:snap-smooth-nodes="false"
     inkscape:snap-object-midpoints="false"
     inkscape:snap-global="false">
    <inkscape:grid
       type="xygrid"
       id="grid105"
       spacingy="10"
       spacingx="10" />
  </sodipodi:namedview>
  <!--! Font Awesome Pro 6.1.1 by @fontawesome - https://fontawesome.com License - https://fontawesome.com/license (Commercial License) Copyright 2022 Fonticons, Inc. -->
  <g
     inkscape:groupmode="layer"
     id="layer1"
     inkscape:label="top"
     style="display:inline" />
  <g
     inkscape:groupmode="layer"
     id="layer2"
     inkscape:label="bottom"
     style="display:inline">
    <path
       id="path2641"
       style="fill:#31a354;fill-opacity:1;stroke:#000000;stroke-width:20;stroke-miterlimit:4;stroke-dasharray:none;stroke-opacity:1"
       d="m 134.08853,17.748047 c -2.86717,0.775928 -7.41008,1.159565 -11.25586,4.824219 -9.87812,9.412885 -12.74992,18.279318 -11.52149,35.578125 1.21259,17.075734 0.0954,28.749155 14.98372,48.973449 9.95658,13.52505 0.52467,22.81616 0.54457,34.66522 0.0209,12.40912 -2.31396,14.18933 -23.99805,18.27344 -16.860186,3.17554 -21.79892,3.37122 -31.964843,1.27148 -23.643516,-4.88349 -35.847233,-2.48288 -48.748047,9.58594 -6.116014,5.72159 -9.130524,16.03307 -6.816406,23.32422 0.783326,2.46804 4.15515,7.59775 7.492188,11.39844 6.023734,6.86063 6.04278,6.96803 2.703125,14.96094 -4.236814,10.14013 -2.780015,27.31074 3.171875,37.39843 3.325306,5.63599 3.807903,8.35977 2.222655,12.5293 -4.925717,12.95563 -0.60444,27.65637 11.31836,38.50586 4.185848,3.80905 7.501953,8.81433 7.501953,11.32422 0,2.47398 1.436608,9.33314 3.191406,15.24219 3.622144,12.19707 12.430049,20.43575 24.082031,22.52343 4.05503,0.72654 11.571483,0.5634 17.362198,0.67194 7.479885,0.14019 17.287315,0.094 22.443575,-0.0269 12.99802,-0.30488 27.29103,0.28942 39.00478,-0.008 5.36174,-0.13033 10.74256,-5.3e-4 16.08203,-0.50586 7.17144,-0.67871 10.87027,-1.05183 21.34375,-3.38476 10.47346,-2.33292 25.15074,-4.24024 32.61523,-4.24024 11.70411,0 41.15912,0.51771 41.15912,3.76953 0,8.7995 4.38842,10.69521 36.48047,15.76172 17.19776,2.71507 33.14447,4.52489 35.4375,4.02149 5.94753,-1.3057 19.09523,-12.41953 28.14962,-38.95824 10.8792,-31.88727 8.42166,-57.00002 16.0897,-94.6277 5.03404,-24.70245 5.31045,-32.42102 1.28515,-35.76172 -3.28021,-2.72233 -33.01289,-7.29331 -69.57031,-10.69531 -20.05763,-1.86656 -24.3962,-1.73038 -28.40234,0.89453 -4.34901,2.84959 -5.57468,2.61591 -15.28125,-2.92773 -11.4816,-6.55741 -20.91888,-10.61554 -34.96372,-30.71661 -8.02879,-11.49086 -9.85712,-16.23984 -31.85266,-34.34323 -23.5187,-19.35698 -34.27075,-50.299336 -41.06151,-68.258854 -3.60812,-9.542383 -16.86935,-24.622415 -20.88282,-33.816407 -1.9075,-4.369683 -6.43221,-7.554704 -8.3457,-7.226562 z"
       sodipodi:nodetypes="sssscsssssssssssssscssssssssssssssssss" />
    <path
       style="fill:none;stroke:#000000;stroke-width:20;stroke-linecap:butt;stroke-linejoin:miter;stroke-opacity:1;stroke-miterlimit:4;stroke-dasharray:none"
       d="m 283.17808,195.94521 c 0,0 4.38356,39.89041 -0.43835,73.64383 -4.82192,33.75343 -15.78083,84.60274 -15.78083,84.60274"
       id="path7101" />
  </g>
</svg>
